<svg width="15" height="16" viewBox="0 0 15 16" fill="none" xmlns="http://www.w3.org/2000/svg">
<path d="M4.011 7.692C3.507 7.692 3.045 7.608 2.625 7.44C2.219 7.258 1.869 7.02 1.575 6.726C1.281 6.418 1.05 6.054 0.882 5.634C0.728 5.214 0.651 4.759 0.651 4.269C0.651 3.779 0.728 3.324 0.882 2.904C1.05 2.47 1.281 2.099 1.575 1.791C1.869 1.469 2.219 1.224 2.625 1.056C3.045 0.873999 3.507 0.782999 4.011 0.782999C4.515 0.782999 4.977 0.873999 5.397 1.056C5.817 1.224 6.174 1.469 6.468 1.791C6.762 2.099 6.993 2.47 7.161 2.904C7.329 3.324 7.413 3.779 7.413 4.269C7.413 4.759 7.329 5.214 7.161 5.634C6.993 6.054 6.762 6.418 6.468 6.726C6.174 7.02 5.817 7.258 5.397 7.44C4.977 7.608 4.515 7.692 4.011 7.692ZM2.688 15L11.634 0.992999H12.789L3.822 15H2.688ZM11.319 15.252C10.815 15.252 10.353 15.168 9.933 15C9.527 14.818 9.177 14.58 8.883 14.286C8.589 13.978 8.358 13.614 8.19 13.194C8.036 12.774 7.959 12.319 7.959 11.829C7.959 11.339 8.036 10.884 8.19 10.464C8.358 10.03 8.589 9.659 8.883 9.351C9.177 9.029 9.527 8.784 9.933 8.616C10.353 8.434 10.815 8.343 11.319 8.343C11.823 8.343 12.278 8.434 12.684 8.616C13.104 8.784 13.461 9.029 13.755 9.351C14.049 9.659 14.28 10.03 14.448 10.464C14.616 10.884 14.7 11.339 14.7 11.829C14.7 12.319 14.616 12.774 14.448 13.194C14.28 13.614 14.049 13.978 13.755 14.286C13.461 14.58 13.104 14.818 12.684 15C12.278 15.168 11.823 15.252 11.319 15.252ZM4.011 6.642C4.319 6.642 4.606 6.579 4.872 6.453C5.138 6.327 5.362 6.159 5.544 5.949C5.74 5.739 5.887 5.494 5.985 5.214C6.097 4.92 6.153 4.605 6.153 4.269C6.153 3.569 5.95 2.995 5.544 2.547C5.152 2.085 4.641 1.854 4.011 1.854C3.381 1.854 2.87 2.085 2.478 2.547C2.1 2.995 1.911 3.569 1.911 4.269C1.911 4.941 2.1 5.508 2.478 5.97C2.87 6.418 3.381 6.642 4.011 6.642ZM11.319 14.202C11.627 14.202 11.914 14.139 12.18 14.013C12.446 13.887 12.67 13.719 12.852 13.509C13.048 13.299 13.195 13.054 13.293 12.774C13.405 12.48 13.461 12.165 13.461 11.829C13.461 11.129 13.258 10.555 12.852 10.107C12.46 9.645 11.949 9.414 11.319 9.414C10.689 9.414 10.178 9.645 9.786 10.107C9.394 10.555 9.198 11.129 9.198 11.829C9.198 12.165 9.247 12.48 9.345 12.774C9.457 13.054 9.604 13.299 9.786 13.509C9.968 13.719 10.185 13.887 10.437 14.013C10.703 14.139 10.997 14.202 11.319 14.202Z" fill="#E5E5E5"/>
</svg>
