<svg width="62" height="49" viewBox="0 0 62 49" fill="none" xmlns="http://www.w3.org/2000/svg">
<rect x="5" y="20" width="52" height="28" stroke="white" stroke-width="2"/>
<rect x="1" y="10" width="60" height="5" rx="2.5" stroke="white" stroke-width="2"/>
<rect x="16" y="1" width="30" height="4" stroke="white" stroke-width="2"/>
<path d="M7 2.5C7 1.11929 8.11929 0 9.5 0C10.8807 0 12 1.11929 12 2.5V6H7V2.5Z" fill="white"/>
<path d="M50 3C50 1.34315 51.3431 0 53 0C54.6569 0 56 1.34315 56 3V6H50V3Z" fill="white"/>
<rect x="42.7437" y="28.0853" width="1.79268" height="11.3537" rx="0.896341" fill="white"/>
<rect x="37.9634" y="34.6585" width="1.79268" height="11.3537" rx="0.896341" transform="rotate(-90 37.9634 34.6585)" fill="white"/>
<rect x="13" y="35" width="2" height="11" rx="1" transform="rotate(-90 13 35)" fill="white"/>
</svg>
