<svg width="27" height="24" viewBox="0 0 27 24" fill="none" xmlns="http://www.w3.org/2000/svg">
<path d="M0 1.83191H3.31429C3.75854 1.83191 4.14952 2.12499 4.27414 2.5514L7.91748 15.018C8.0421 15.4444 8.43308 15.7375 8.87733 15.7375H21.5942C22.042 15.7375 22.4352 15.4398 22.5567 15.0088L25.041 6.19329C25.2208 5.55527 24.7413 4.92205 24.0785 4.92205H8.12775" stroke="#A8A8A8" stroke-width="2"/>
<path d="M13.2237 20.3727C13.2237 21.5401 12.2939 22.4629 11.1758 22.4629C10.0577 22.4629 9.12793 21.5401 9.12793 20.3727C9.12793 19.2054 10.0577 18.2826 11.1758 18.2826C12.2939 18.2826 13.2237 19.2054 13.2237 20.3727Z" stroke="#A8A8A8" stroke-width="2"/>
<path d="M21.3512 20.3727C21.3512 21.5401 20.4214 22.4629 19.3033 22.4629C18.1852 22.4629 17.2554 21.5401 17.2554 20.3727C17.2554 19.2054 18.1852 18.2826 19.3033 18.2826C20.4214 18.2826 21.3512 19.2054 21.3512 20.3727Z" stroke="#A8A8A8" stroke-width="2"/>
</svg>
