<svg width="17" height="17" viewBox="0 0 17 17" fill="none" xmlns="http://www.w3.org/2000/svg">
<path d="M10.6352 3.14282H16.5358V15.1641C16.5358 15.6815 16.0699 16 15.5653 16H1.35721C0.852555 16 0.464355 15.6019 0.464355 15.0844V3.14282H6.28734" stroke="#E5E5E5" stroke-width="0.8" stroke-miterlimit="10"/>
<path d="M10.8496 3.14286H16.4809C16.5197 3.14286 16.5585 3.11088 16.5197 3.07889L14.4226 1H2.57758L0.480441 3.07889C0.441605 3.11088 0.480444 3.14286 0.51928 3.14286H6.1505" stroke="#E5E5E5" stroke-width="0.8" stroke-miterlimit="10"/>
<path d="M11.1784 3.14286L10.2468 1H6.84613L5.82129 3.14286" stroke="#E5E5E5" stroke-width="0.8" stroke-miterlimit="10"/>
<path d="M11.1784 3.14282V7.42854L8.56854 5.92274L5.82129 7.42854V3.14282" stroke="#E5E5E5" stroke-width="0.8" stroke-miterlimit="10"/>
<path d="M10.4508 11.7143H6.58616C6.14334 11.7143 5.82129 11.276 5.82129 10.7889V10.4967C5.82129 9.96102 6.1836 9.57141 6.58616 9.57141H10.4105C10.8533 9.57141 11.1754 10.0097 11.1754 10.4967V10.7889C11.2156 11.3247 10.8533 11.7143 10.4508 11.7143Z" stroke="#E5E5E5" stroke-width="0.8" stroke-miterlimit="10"/>
</svg>
