<svg width="17" height="17" viewBox="0 0 17 17" fill="none" xmlns="http://www.w3.org/2000/svg">
<circle cx="8.5" cy="8.5" r="8.5" fill="#D7D9DF"/>
<path d="M7.85546 10.1741L9.26727 9.75961C9.13774 9.64304 9.03412 9.42285 9.03412 9.21561C9.03412 8.12761 11.1972 7.98513 11.1972 6.09408C11.1972 4.88951 10.1739 4.04761 8.50308 4.04761C7.38917 4.04761 6.35298 4.50094 5.6665 5.30399L6.71565 6.48266C7.11717 6.00342 7.66117 5.67961 8.30879 5.67961C9.02117 5.67961 9.31908 6.01637 9.31908 6.41789C9.31908 7.31161 7.42803 7.49294 7.42803 9.03427C7.42803 9.48761 7.58346 9.87618 7.85546 10.1741ZM8.47717 12.9588C9.04708 12.9588 9.52631 12.4796 9.52631 11.9097C9.52631 11.3398 9.04708 10.8606 8.47717 10.8606C7.90727 10.8606 7.42803 11.3398 7.42803 11.9097C7.42803 12.4796 7.90727 12.9588 8.47717 12.9588Z" fill="white"/>
</svg>
