<svg width="14" height="17" viewBox="0 0 14 17" fill="none" xmlns="http://www.w3.org/2000/svg">
<path d="M1.97949 8.42396C1.97949 5.79865 1.97949 3.17334 1.97949 0.373008C4.59557 0.373008 6.9642 0.267998 9.33281 0.408014C11.8075 0.548031 13.6812 2.85831 13.6104 5.37861C13.5397 7.8289 11.6307 9.96415 9.15605 10.0692C7.38843 10.1742 5.65615 10.1042 3.81782 10.1042L1.97949 8.42396ZM3.81782 1.9832C3.81782 4.22347 3.81782 6.32372 3.81782 8.49397C4.2774 8.52898 5.65615 8.49397 6.00968 8.49397C6.99954 8.49397 8.3783 8.52897 9.15605 8.42396C10.8176 8.24894 12.0196 6.81378 11.9842 5.20359C11.9489 3.52339 10.6762 2.08821 8.94392 1.9832C7.28236 1.91319 5.58544 1.9832 3.81782 1.9832Z" fill="#FF7931"/>
<path d="M7.17631 10.4892C6.64602 10.4892 6.08038 10.4892 5.51474 10.4892C4.9491 10.4892 4.38347 10.4892 3.81783 10.4892V9.78915C4.38347 9.78915 4.9491 9.78915 5.51474 9.78915C6.75208 9.78915 7.95408 9.82416 9.15606 9.75415C11.4186 9.61413 13.2216 7.72391 13.2569 5.37863C13.3276 2.96335 11.5247 0.898098 9.29746 0.758081C7.67125 0.653069 6.04503 0.688071 4.34812 0.723075C3.67642 0.723075 3.00472 0.758081 2.33302 0.758081V8.45899H1.62598V0.0579981H1.9795C2.79261 0.0579981 3.57036 0.057996 4.34812 0.0229918C6.08039 -0.0120123 7.7066 -0.0120102 9.36817 0.0579981C11.9842 0.198015 14.0347 2.61331 13.9993 5.37863C13.9286 8.07395 11.8428 10.2792 9.22675 10.4192C8.5197 10.4892 7.84801 10.4892 7.17631 10.4892ZM7.17631 8.84404C6.82279 8.84404 6.43391 8.84404 6.00969 8.84404C5.86828 8.84404 5.58546 8.84404 5.26729 8.84404C4.70165 8.84404 4.06531 8.84404 3.78249 8.84404L3.46431 8.80903V1.59818H3.81783C4.38347 1.59818 4.91377 1.59818 5.44406 1.59818C6.64604 1.59818 7.81267 1.56318 8.9793 1.63318C10.853 1.7382 12.3378 3.31339 12.3731 5.20361C12.4085 7.02383 10.9944 8.59901 9.22675 8.77403C8.76717 8.84404 8.06012 8.84404 7.17631 8.84404ZM5.86827 8.14396C5.93897 8.14396 5.97433 8.14396 6.00969 8.14396C7.49449 8.17896 8.5197 8.14396 9.12069 8.10895C10.5348 7.96894 11.6661 6.70878 11.6307 5.23861C11.6307 3.69843 10.4287 2.43828 8.90859 2.36827C7.77731 2.29827 6.64604 2.33327 5.44406 2.33327C5.01983 2.33327 4.59558 2.33327 4.17136 2.33327V8.14396C4.48953 8.14396 4.91377 8.14396 5.26729 8.14396C5.51476 8.14396 5.72686 8.14396 5.86827 8.14396Z" fill="#FF7931"/>
<path d="M4.4542 8.49402H0.388672V10.1392H4.4542V8.49402Z" fill="#FF7931"/>
<path d="M4.77258 10.4542H0V8.10889H4.77258V10.4542ZM0.742392 9.75409H4.10087V8.80897H0.742392V9.75409Z" fill="#FF7931"/>
<path d="M7.74199 11.7494H0.388672V13.3946H7.74199V11.7494Z" fill="#FF7931"/>
<path d="M8.09552 13.7447H0.0351562V11.3994H8.09552V13.7447ZM0.742205 13.0446H7.38848V12.0995H0.742205V13.0446Z" fill="#FF7931"/>
<path d="M3.81782 7.47888H1.97949V16.65H3.81782V7.47888Z" fill="#FF7931"/>
<path d="M4.17136 17.0001H1.62598V7.12891H4.17136V17.0001ZM2.33302 16.3H3.46431V7.82899H2.33302V16.3Z" fill="#FF7931"/>
</svg>
