<svg width="12" height="13" viewBox="0 0 12 13" fill="none" xmlns="http://www.w3.org/2000/svg">
<mask id="path-1-inside-1" fill="white">
<path fill-rule="evenodd" clip-rule="evenodd" d="M4.83323 8.02118H6.13875H6.13889C6.6666 8.02118 7.19432 8.02118 7.7498 7.96764C9.80529 7.86057 11.4441 6.1742 11.4997 4.11307C11.5275 1.99841 9.91641 0.151423 7.86092 0.0443515C6.5554 -0.00918426 5.27766 -0.00918589 3.9166 0.017582C3.3055 0.0443499 2.69441 0.0443515 2.05554 0.0443515H1.77777V5.45148V6.20093H0.5V7.99438H1.77777V8.71716H0.527771V10.5106H1.77777V13H3.77771V10.5106H6.86092V8.71716H3.77771V8.02118H4.83323ZM3.77771 6.20093H4.24988V6.22773H4.63881H5.111H5.22211C6.38874 6.2545 7.19427 6.22773 7.66648 6.20096C8.77755 6.09389 9.66642 5.13024 9.63865 4.00599C9.63865 2.82821 8.69423 1.86457 7.49982 1.81103C6.83568 1.77103 6.17153 1.77586 5.48421 1.78086H5.48421H5.4842H5.4842H5.48419H5.48418H5.48418C5.25164 1.78255 5.01644 1.78426 4.77769 1.78426H3.77771V5.45148V6.20093Z"/>
</mask>
<path fill-rule="evenodd" clip-rule="evenodd" d="M4.83323 8.02118H6.13875H6.13889C6.6666 8.02118 7.19432 8.02118 7.7498 7.96764C9.80529 7.86057 11.4441 6.1742 11.4997 4.11307C11.5275 1.99841 9.91641 0.151423 7.86092 0.0443515C6.5554 -0.00918426 5.27766 -0.00918589 3.9166 0.017582C3.3055 0.0443499 2.69441 0.0443515 2.05554 0.0443515H1.77777V5.45148V6.20093H0.5V7.99438H1.77777V8.71716H0.527771V10.5106H1.77777V13H3.77771V10.5106H6.86092V8.71716H3.77771V8.02118H4.83323ZM3.77771 6.20093H4.24988V6.22773H4.63881H5.111H5.22211C6.38874 6.2545 7.19427 6.22773 7.66648 6.20096C8.77755 6.09389 9.66642 5.13024 9.63865 4.00599C9.63865 2.82821 8.69423 1.86457 7.49982 1.81103C6.83568 1.77103 6.17153 1.77586 5.48421 1.78086H5.48421H5.4842H5.4842H5.48419H5.48418H5.48418C5.25164 1.78255 5.01644 1.78426 4.77769 1.78426H3.77771V5.45148V6.20093Z" fill="#A8A8A8"/>
<path d="M7.7498 7.96764L7.73679 7.71774L7.72582 7.7188L7.7498 7.96764ZM11.4997 4.11307L11.7496 4.11981L11.7497 4.11636L11.4997 4.11307ZM7.86092 0.0443515L7.87392 -0.205325L7.87116 -0.205439L7.86092 0.0443515ZM3.9166 0.017582L3.91168 -0.232442L3.90566 -0.232179L3.9166 0.017582ZM1.77777 0.0443515V-0.205648H1.52777V0.0443515H1.77777ZM1.77777 6.20093V6.45093H2.02777V6.20093H1.77777ZM0.5 6.20093V5.95093H0.25V6.20093H0.5ZM0.5 7.99438H0.25V8.24438H0.5V7.99438ZM1.77777 7.99438H2.02777V7.74438H1.77777V7.99438ZM1.77777 8.71716V8.96716H2.02777V8.71716H1.77777ZM0.527771 8.71716V8.46716H0.277771V8.71716H0.527771ZM0.527771 10.5106H0.277771V10.7606H0.527771V10.5106ZM1.77777 10.5106H2.02777V10.2606H1.77777V10.5106ZM1.77777 13H1.52777V13.25H1.77777V13ZM3.77771 13V13.25H4.02771V13H3.77771ZM3.77771 10.5106V10.2606H3.52771V10.5106H3.77771ZM6.86092 10.5106V10.7606H7.11092V10.5106H6.86092ZM6.86092 8.71716H7.11092V8.46716H6.86092V8.71716ZM3.77771 8.71716H3.52771V8.96716H3.77771V8.71716ZM3.77771 8.02118V7.77118H3.52771V8.02118H3.77771ZM4.24988 6.20093H4.49988V5.95093H4.24988V6.20093ZM3.77771 6.20093H3.52771V6.45093H3.77771V6.20093ZM4.24988 6.22773H3.99988V6.47773H4.24988V6.22773ZM5.22211 6.22773L5.22785 5.97773H5.22211V6.22773ZM7.66648 6.20096L7.68064 6.45076L7.69046 6.44981L7.66648 6.20096ZM9.63865 4.00599H9.38857L9.38872 4.01217L9.63865 4.00599ZM7.49982 1.81103L7.48479 2.06061L7.48863 2.06078L7.49982 1.81103ZM5.48421 1.78086V2.03087L5.48603 2.03085L5.48421 1.78086ZM5.48418 1.78086V1.53085L5.48236 1.53087L5.48418 1.78086ZM3.77771 1.78426V1.53426H3.52771V1.78426H3.77771ZM6.13875 7.77118H4.83323V8.27118H6.13875V7.77118ZM6.13889 7.77118H6.13875V8.27118H6.13889V7.77118ZM7.72582 7.7188C7.18412 7.771 6.66811 7.77118 6.13889 7.77118V8.27118C6.66509 8.27118 7.20451 8.27135 7.77379 8.21649L7.72582 7.7188ZM11.2498 4.10634C11.1977 6.03772 9.66142 7.61773 7.7368 7.71798L7.76281 8.21731C9.94917 8.10342 11.6905 6.31068 11.7496 4.11981L11.2498 4.10634ZM7.84791 0.294013C9.75701 0.393459 11.2759 2.11675 11.2497 4.10979L11.7497 4.11636C11.779 1.88007 10.0758 -0.090613 7.87392 -0.20531L7.84791 0.294013ZM3.92151 0.267534C5.27954 0.240826 6.55189 0.240882 7.85068 0.294142L7.87116 -0.205439C6.55892 -0.25925 5.27579 -0.259197 3.91168 -0.23237L3.92151 0.267534ZM2.05554 0.294351C2.69344 0.294351 3.31005 0.294391 3.92754 0.267342L3.90566 -0.232179C3.30096 -0.205691 2.69538 -0.205648 2.05554 -0.205648V0.294351ZM1.77777 0.294351H2.05554V-0.205648H1.77777V0.294351ZM2.02777 5.45148V0.0443515H1.52777V5.45148H2.02777ZM2.02777 6.20093V5.45148H1.52777V6.20093H2.02777ZM0.5 6.45093H1.77777V5.95093H0.5V6.45093ZM0.75 7.99438V6.20093H0.25V7.99438H0.75ZM1.77777 7.74438H0.5V8.24438H1.77777V7.74438ZM2.02777 8.71716V7.99438H1.52777V8.71716H2.02777ZM0.527771 8.96716H1.77777V8.46716H0.527771V8.96716ZM0.777771 10.5106V8.71716H0.277771V10.5106H0.777771ZM1.77777 10.2606H0.527771V10.7606H1.77777V10.2606ZM2.02777 13V10.5106H1.52777V13H2.02777ZM3.77771 12.75H1.77777V13.25H3.77771V12.75ZM3.52771 10.5106V13H4.02771V10.5106H3.52771ZM6.86092 10.2606H3.77771V10.7606H6.86092V10.2606ZM6.61092 8.71716V10.5106H7.11092V8.71716H6.61092ZM3.77771 8.96716H6.86092V8.46716H3.77771V8.96716ZM3.52771 8.02118V8.71716H4.02771V8.02118H3.52771ZM4.83323 7.77118H3.77771V8.27118H4.83323V7.77118ZM4.24988 5.95093H3.77771V6.45093H4.24988V5.95093ZM4.49988 6.22773V6.20093H3.99988V6.22773H4.49988ZM4.63881 5.97773H4.24988V6.47773H4.63881V5.97773ZM5.111 5.97773H4.63881V6.47773H5.111V5.97773ZM5.22211 5.97773H5.111V6.47773H5.22211V5.97773ZM7.65233 5.95136C7.18686 5.97775 6.38797 6.00442 5.22785 5.9778L5.21638 6.47767C6.38951 6.50458 7.20167 6.47771 7.68063 6.45056L7.65233 5.95136ZM9.38872 4.01217C9.41314 5.00033 8.62804 5.85714 7.6425 5.95212L7.69046 6.44981C8.92707 6.33064 9.91971 5.26016 9.88857 3.99982L9.38872 4.01217ZM7.48863 2.06078C8.55423 2.10854 9.38865 2.96666 9.38865 4.00599H9.88865C9.88865 2.68975 8.83423 1.62059 7.51102 1.56128L7.48863 2.06078ZM5.48603 2.03085C6.17482 2.02584 6.83049 2.02117 7.48479 2.06058L7.51485 1.56149C6.84087 1.52089 6.16824 1.52588 5.4824 1.53087L5.48603 2.03085ZM5.48421 2.03086H5.48421V1.53086H5.48421V2.03086ZM5.4842 2.03086H5.48421V1.53086H5.4842V2.03086ZM5.4842 2.03086H5.4842V1.53086H5.4842V2.03086ZM5.48419 2.03086H5.4842V1.53086H5.48419V2.03086ZM5.48418 2.03086H5.48419V1.53086H5.48418V2.03086ZM5.48418 2.03086H5.48418V1.53086H5.48418V2.03086ZM4.77769 2.03426C5.01749 2.03426 5.25359 2.03255 5.486 2.03085L5.48236 1.53087C5.24968 1.53256 5.01538 1.53426 4.77769 1.53426V2.03426ZM3.77771 2.03426H4.77769V1.53426H3.77771V2.03426ZM4.02771 5.45148V1.78426H3.52771V5.45148H4.02771ZM3.52771 5.45148V6.20093H4.02771V5.45148H3.52771Z" fill="white" mask="url(#path-1-inside-1)"/>
</svg>
