<svg width="23" height="24" viewBox="0 0 23 24" fill="none" xmlns="http://www.w3.org/2000/svg">
<path d="M22.7251 22.2056L17.2663 16.8577C19.0463 15.0556 20.1737 12.6142 20.1737 9.88208C20.1737 4.41787 15.6643 0 10.0868 0C4.50941 0 0 4.41787 0 9.88208C0 15.3463 4.50941 19.7642 10.0868 19.7642C12.2229 19.7642 14.2403 19.0666 15.9016 17.9621L21.479 23.4263C21.6571 23.6007 21.8944 23.6589 22.1317 23.6589C22.3691 23.6589 22.6064 23.6007 22.7844 23.4263C23.0811 23.0776 23.0811 22.5544 22.7251 22.2056ZM1.78003 9.88208C1.78003 5.40608 5.5181 1.7439 10.0868 1.7439C14.6556 1.7439 18.3937 5.40608 18.3937 9.88208C18.3937 14.3581 14.6556 18.0203 10.0868 18.0203C5.5181 18.0203 1.78003 14.3581 1.78003 9.88208Z" fill="#48494D"/>
</svg>
