<svg width="15" height="18" viewBox="0 0 15 18" fill="none" xmlns="http://www.w3.org/2000/svg">
<path d="M5.83333 11.0286C5.55719 11.0286 5.33333 11.2524 5.33333 11.5286V16.1C5.33333 16.3761 5.10948 16.6 4.83333 16.6H1.5C1.22386 16.6 1 16.3761 1 16.1V6.8014C1 6.65543 1.06378 6.51676 1.1746 6.42177L7.1746 1.27891C7.36185 1.11842 7.63815 1.11842 7.8254 1.27891L13.8254 6.42177C13.9362 6.51676 14 6.65543 14 6.8014V16.1C14 16.3761 13.7761 16.6 13.5 16.6H10.1667C9.89052 16.6 9.66667 16.3761 9.66667 16.1V11.5286C9.66667 11.2524 9.44281 11.0286 9.16667 11.0286H5.83333Z" stroke="#E5E5E5" stroke-linecap="round" stroke-linejoin="round"/>
</svg>
