<svg width="28" height="31" viewBox="0 0 28 31" fill="none" xmlns="http://www.w3.org/2000/svg">
<path d="M27.3659 19.0904L26.8266 17.0477L21.2965 18.5077L18.8585 17.047V13.6654L21.4823 12.1424L27.1395 13.6414L27.6802 11.5987L24.068 10.6416L27.6788 8.54562L26.6182 6.71818L23.0495 8.78964L23.9832 5.25144L21.9404 4.71223L20.4691 10.2875L17.8006 11.8364L14.8844 10.1531V7.13661L19.0146 3.03434L17.5262 1.53495L14.8844 4.15888V0H12.7715V4.13066L10.1782 1.53757L8.6843 3.03147L12.7715 7.1183V10.153L9.85466 11.8369L7.24338 10.3286L7.24368 10.3285L5.76079 4.71206L3.71805 5.25127L4.66548 8.83955L1.05877 6.75615L0.00160314 8.5857L3.58777 10.6572L0.0222757 11.5985L0.56149 13.6413L6.17799 12.1584L6.17639 12.1525L8.79812 13.6668V17.1119L6.16466 18.6404L0.561406 17.161L0.0221912 19.2038L3.57684 20.1423L0 22.2184L1.06062 24.0453L4.67325 21.9486L3.71856 25.5508L5.76062 26.0915L7.25579 20.4498L9.92034 18.9034L12.7715 20.5499V23.6842L8.68434 27.771L10.1782 29.2649L12.7715 26.6718V30.8028H14.8844V26.6435L17.5256 29.2676L19.0153 27.7682L14.8844 23.6642V20.5499L17.7921 18.871L20.4557 20.467L21.6151 25.9263L23.6813 25.4876L22.93 21.9495L26.2922 23.964L27.3775 22.151L23.8281 20.0244L27.3659 19.0904ZM16.7456 17.0353L13.828 18.7196L10.9111 17.0353V13.6672L13.828 11.9828L16.7456 13.6672V17.0353Z" fill="#6CA7FF"/>
</svg>
