<svg width="31" height="31" viewBox="0 0 31 31" fill="none" xmlns="http://www.w3.org/2000/svg">
<path d="M6.52246 8.51569C7.07749 9.06931 7.97061 9.07776 8.52423 8.52414C9.07363 7.97474 9.07786 7.08585 8.51437 6.52237L6.54218 4.55018C5.98574 3.99374 5.09544 3.98529 4.54041 4.54032C3.98961 5.08971 3.98538 5.9772 4.55027 6.54209L6.52246 8.51569Z" fill="#FF7931"/>
<path d="M29.5787 14.0914H26.7894C26.002 14.0914 25.3652 14.7169 25.3652 15.5001C25.3652 16.2792 25.9893 16.9088 26.7894 16.9088H29.5787C30.3661 16.9088 31.0001 16.2848 31.0001 15.5001C31.0001 14.7225 30.3746 14.0914 29.5787 14.0914Z" fill="#FF7931"/>
<path d="M5.63483 15.5001C5.63483 14.7225 5.00936 14.0914 4.21203 14.0914H1.42139C0.635327 14.0914 0 14.7169 0 15.5001C0 16.2792 0.624057 16.9088 1.42139 16.9088H4.21203C4.99809 16.9088 5.63483 16.2848 5.63483 15.5001Z" fill="#FF7931"/>
<path d="M15.5001 7.0437C10.833 7.0437 7.04785 10.8289 7.04785 15.4959C7.04785 20.163 10.833 23.9482 15.5001 23.9482C20.1657 23.9482 23.9523 20.163 23.9523 15.4959C23.9523 10.8289 20.1657 7.0437 15.5001 7.0437ZM15.5001 21.1308C12.3883 21.1308 9.86527 18.6078 9.86527 15.4959C9.86527 12.3841 12.3883 9.86111 15.5001 9.86111C18.6119 9.86111 21.1349 12.3841 21.1349 15.4959C21.1349 18.6078 18.6119 21.1308 15.5001 21.1308Z" fill="#FF7931"/>
<path d="M6.52237 22.4856L4.55018 24.4578C3.99374 25.0142 3.98529 25.9045 4.54032 26.4595C5.09112 27.0089 5.97861 27.0132 6.54209 26.4497L8.51428 24.4775C9.07072 23.921 9.07917 23.0307 8.52414 22.4757C7.97334 21.9235 7.08585 21.9221 6.52237 22.4856Z" fill="#FF7931"/>
<path d="M24.4776 8.5157L26.4498 6.5421C27.0062 5.98566 27.0119 5.09536 26.4596 4.54033C25.9074 3.99094 25.0214 3.98671 24.4579 4.55019L22.4857 6.52238C21.9292 7.07882 21.9222 7.97053 22.4758 8.52415C23.028 9.07355 23.9141 9.07778 24.4776 8.5157Z" fill="#FF7931"/>
<path d="M15.5 25.3652C14.721 25.3652 14.0913 25.9907 14.0913 26.7894V29.5787C14.0913 30.3661 14.7168 31.0001 15.5 31.0001C16.279 31.0001 16.9087 30.3774 16.9087 29.5787V26.7894C16.9087 26.002 16.2847 25.3652 15.5 25.3652Z" fill="#FF7931"/>
<path d="M24.4777 22.4857C23.9212 21.9292 23.0309 21.9222 22.4759 22.4758C21.9265 23.028 21.9209 23.9141 22.4858 24.4776L24.458 26.4498C25.0144 27.0062 25.9047 27.0119 26.4597 26.4596C27.0105 25.9102 27.0148 25.0214 26.4499 24.4579L24.4777 22.4857Z" fill="#FF7931"/>
<path d="M15.5 5.63483C16.279 5.63483 16.9087 5.01077 16.9087 4.21203V1.42279C16.9087 0.636735 16.2847 0 15.5 0C14.721 0 14.0913 0.625466 14.0913 1.42279V4.21203C14.0913 4.99809 14.7168 5.63483 15.5 5.63483Z" fill="#FF7931"/>
</svg>
