<svg width="21" height="24" viewBox="0 0 21 24" fill="none" xmlns="http://www.w3.org/2000/svg">
<path d="M10.3478 0.831909C6.35825 0.831909 3.10435 4.04643 3.10435 7.98771C3.10435 10.4355 4.36549 12.6078 6.27337 13.8976C2.57079 15.455 0 19.0888 0 23.3216H2.06957C2.06957 18.7573 5.72768 15.1435 10.3478 15.1435C14.968 15.1435 18.6261 18.7573 18.6261 23.3216H20.6957C20.6957 19.0888 18.1249 15.455 14.4223 13.8976C16.3302 12.6078 17.5913 10.4355 17.5913 7.98771C17.5913 4.04643 14.3374 0.831909 10.3478 0.831909ZM10.3478 2.87642C13.2177 2.87642 15.5217 5.15254 15.5217 7.98771C15.5217 10.8229 13.2177 13.099 10.3478 13.099C7.47792 13.099 5.17391 10.8229 5.17391 7.98771C5.17391 5.15254 7.47792 2.87642 10.3478 2.87642Z" fill="#A8A8A8"/>
</svg>
